ffmpeg version 3.4.8-0ubuntu0.2 Copyright (c) 2000-2020 the FFmpeg developers
  built with gcc 7 (Ubuntu 7.5.0-3ubuntu1~18.04)
  configuration: --prefix=/usr --extra-version=0ubuntu0.2 --toolchain=hardened --libdir=/usr/lib/x86_64-linux-gnu --incdir=/usr/include/x86_64-linux-gnu --enable-gpl --disable-stripping --enable-avresample --enable-avisynth --enable-gnutls --enable-ladspa --enable-libass --enable-libbluray --enable-libbs2b --enable-libcaca --enable-libcdio --enable-libflite --enable-libfontconfig --enable-libfreetype --enable-libfribidi --enable-libgme --enable-libgsm --enable-libmp3lame --enable-libmysofa --enable-libopenjpeg --enable-libopenmpt --enable-libopus --enable-libpulse --enable-librubberband --enable-librsvg --enable-libshine --enable-libsnappy --enable-libsoxr --enable-libspeex --enable-libssh --enable-libtheora --enable-libtwolame --enable-libvorbis --enable-libvpx --enable-libwavpack --enable-libwebp --enable-libx265 --enable-libxml2 --enable-libxvid --enable-libzmq --enable-libzvbi --enable-omx --enable-openal --enable-opengl --enable-sdl2 --enable-libdc1394 --enable-libdrm --enable-libiec61883 --enable-chromaprint --enable-frei0r --enable-libopencv --enable-libx264 --enable-shared
  libavutil      55. 78.100 / 55. 78.100
  libavcodec     57.107.100 / 57.107.100
  libavformat    57. 83.100 / 57. 83.100
  libavdevice    57. 10.100 / 57. 10.100
  libavfilter     6.107.100 /  6.107.100
  libavresample   3.  7.  0 /  3.  7.  0
  libswscale      4.  8.100 /  4.  8.100
  libswresample   2.  9.100 /  2.  9.100
  libpostproc    54.  7.100 / 54.  7.100
[rawvideo @ 0x56327096aa20] Estimating duration from bitrate, this may be inaccurate
Input #0, rawvideo, from '../../SVC-Encoder-20220109T061506Z-001/SVC-Encoder/Dataset/RollerCoaster/6f_2x2/tile_yuv/f1_t0_480x480.yuv':
  Duration: 00:00:10.00, start: 0.000000, bitrate: 82944 kb/s
    Stream #0:0: Video: rawvideo (I420 / 0x30323449), yuv420p, 480x480, 82944 kb/s, 30 tbr, 30 tbn, 30 tbc
Stream mapping:
  Stream #0:0 -> #0:0 (rawvideo (native) -> h264 (libx264))
Press [q] to stop, [?] for help
[libx264 @ 0x563270977c60] using cpu capabilities: MMX2 SSE2Fast LZCNT SSSE3 SSE4.2 AVX
[libx264 @ 0x563270977c60] profile High, level 3.0
Output #0, rawvideo, to 'RollerCoaster_f1_t0_480x480_x264_QP_20.h264':
  Metadata:
    encoder         : Lavf57.83.100
    Stream #0:0: Video: h264 (libx264), yuv420p, 480x480, q=-1--1, 30 fps, 30 tbn, 30 tbc
    Metadata:
      encoder         : Lavc57.107.100 libx264
    Side data:
      cpb: bitrate max/min/avg: 0/0/0 buffer size: 0 vbv_delay: -1
frame=   96 fps=0.0 q=26.0 PSNR=Y:nan U:nan V:nan *:nan size=     201kB time=00:00:01.76 bitrate= 932.4kbits/s speed=3.48x    frame=  156 fps=154 q=26.0 PSNR=Y:nan U:nan V:nan *:nan size=     256kB time=00:00:03.76 bitrate= 556.8kbits/s speed=3.71x    frame=  217 fps=143 q=26.0 PSNR=Y:nan U:nan V:nan *:nan size=     512kB time=00:00:05.80 bitrate= 723.2kbits/s speed=3.82x    frame=  281 fps=139 q=26.0 PSNR=Y:nan U:nan V:nan *:nan size=     512kB time=00:00:07.93 bitrate= 528.7kbits/s speed=3.92x    frame=  300 fps=120 q=26.0 LPSNR=Y:inf U:inf V:inf *:inf size=     929kB time=00:00:09.93 bitrate= 766.2kbits/s speed=3.98x    
video:929kB audio:0kB subtitle:0kB other streams:0kB global headers:0kB muxing overhead: 0.000000%
[libx264 @ 0x563270977c60] frame I:2     Avg QP:18.46  size: 37530  PSNR Mean Y:46.70 U:50.65 V:53.04 Avg:47.80 Global:47.72
[libx264 @ 0x563270977c60] frame P:76    Avg QP:19.85  size:  8813  PSNR Mean Y:44.63 U:49.76 V:51.82 Avg:45.88 Global:45.82
[libx264 @ 0x563270977c60] frame B:222   Avg QP:25.47  size:   930  PSNR Mean Y:43.35 U:49.57 V:51.73 Avg:44.71 Global:44.69
[libx264 @ 0x563270977c60] consecutive B-frames:  1.0%  0.7%  1.0% 97.3%
[libx264 @ 0x563270977c60] mb I  I16..4:  9.8% 77.1% 13.1%
[libx264 @ 0x563270977c60] mb P  I16..4:  0.6%  0.8%  0.2%  P16..4: 32.5% 25.4% 20.4%  0.0%  0.0%    skip:20.1%
[libx264 @ 0x563270977c60] mb B  I16..4:  0.0%  0.0%  0.0%  B16..8: 35.7%  7.9%  1.0%  direct: 0.7%  skip:54.6%  L0:32.5% L1:54.6% BI:12.9%
[libx264 @ 0x563270977c60] 8x8 transform intra:65.9% inter:61.7%
[libx264 @ 0x563270977c60] coded y,uvDC,uvAC intra: 70.8% 75.3% 35.1% inter: 14.9% 9.3% 0.0%
[libx264 @ 0x563270977c60] i16 v,h,dc,p: 31% 33% 18% 18%
[libx264 @ 0x563270977c60] i8 v,h,dc,ddl,ddr,vr,hd,vl,hu:  9% 23% 17%  4%  9%  8% 15%  5% 11%
[libx264 @ 0x563270977c60] i4 v,h,dc,ddl,ddr,vr,hd,vl,hu: 13% 19% 14%  5% 12%  9% 14%  5% 10%
[libx264 @ 0x563270977c60] i8c dc,h,v,p: 45% 29% 13% 14%
[libx264 @ 0x563270977c60] Weighted P-Frames: Y:0.0% UV:0.0%
[libx264 @ 0x563270977c60] ref P L0: 62.4% 18.0% 16.1%  3.4%
[libx264 @ 0x563270977c60] ref B L0: 88.2% 10.5%  1.3%
[libx264 @ 0x563270977c60] ref B L1: 87.6% 12.4%
[libx264 @ 0x563270977c60] PSNR Mean Y:43.695 U:49.623 V:51.761 Avg:45.026 Global:44.968 kb/s:761.08
